:SAMPLES-PER-SECOND 30
:FRAME-RANGE 1-2643
:FULLY-SPECIFIED
:DEGREES
166
root  -44.0135 36.2703 51.7469 -175.877 -28.8026 176.041
RightUpLeg  -32.6972 -19.3611 -6.02495
RightLeg  69.7627 -3.77766 -12.0512
RightFoot  -6.92714 -0.483013 11.2715
RightToes  7.56698e-010 0 -3.6325e-017
Spine  24.0916 0.92679 -4.75117
Spine1  -5.1369 0.682799 -3.5261
HEad  -5.20689 -14.9868 4.99648
LeftShoulder1  1.36143 -1.68371 -19.7599
LeftArm  -7.98747 -26.1177 -16.8907
LeftForeArm  29.3347 -32.5126 -5.50229
LeftHand  0.0332006 -4.21717 -0.12472
RightShoulder  6.93604 13.1049 35.7946
RightArm  0.558175 5.30453 7.67942
RightForeArm  0.55453 17.5687 8.08285
RightHand  -0.0176353 2.10454 -0.451529
LeftUpLeg  -34.8103 24.6964 -5.80808
LeftLeg  34.2319 -6.74926 -4.54696
LeftFoot  0.264329 -0.123178 1.19654
LeftToes  1.48244e-010 1.61973e-010 3.308e-011
167
root  -44.5122 36.5396 52.3904 -174.937 -26.4301 174.928
RightUpLeg  -30.2633 -22.3033 -1.03639
RightLeg  71.9888 -3.90341 -14.184
RightFoot  -5.53654 -0.596953 10.9965
RightToes  7.56698e-010 0 -3.6325e-017
Spine  22.8956 0.963336 -5.48795
Spine1  -4.74446 0.966074 -5.30269
HEad  -5.54609 -14.925 6.11128
LeftShoulder1  1.43815 -1.85977 -20.3706
LeftArm  -0.299737 -24.9664 -21.0407
LeftForeArm  25.8572 -35.5086 -6.46662
LeftHand  0.0642811 -4.1605 -0.507355
RightShoulder  7.94207 14.7544 37.4676
RightArm  5.42809 6.18348 9.38905
RightForeArm  1.08511 27.6399 5.90816
RightHand  0.0324506 2.84264 0.239574
LeftUpLeg  -34.4198 27.2798 -8.88116
LeftLeg  31.2047 -7.18623 -4.31162
LeftFoot  1.44763 -0.24287 2.08898
LeftToes  1.48244e-010 1.61973e-010 3.308e-011
168
root  -45.0419 36.9692 52.9738 -174.544 -23.9825 174.335
RightUpLeg  -24.8773 -26.7972 2.63864
RightLeg  69.7167 -5.19167 -16.0205
RightFoot  -4.60073 -0.608582 9.77781
RightToes  7.56698e-010 0 -3.6325e-017
Spine  21.2806 1.08619 -5.06036
Spine1  -4.08672 1.45585 -6.67662
HEad  -5.31361 -14.9044 5.82102
LeftShoulder1  1.45633 -1.68109 -21.7278
LeftArm  3.05279 -21.3298 -26.0269
LeftForeArm  25.3157 -40.8656 -8.04132
LeftHand  0.183345 -4.08933 -1.9752
RightShoulder  8.77452 16.025 38.8307
RightArm  4.62042 6.49038 11.1523
RightForeArm  10.9615 36.7731 7.72597
RightHand  0.0855568 2.95719 0.966636
LeftUpLeg  -32.8222 29.2925 -11.1026
LeftLeg  26.5755 -7.26733 -3.5849
LeftFoot  3.13593 -0.3185 2.3578
LeftToes  1.48244e-010 1.61973e-010 3.308e-011
169
root  -45.5401 37.3732 53.4766 -174.383 -21.4606 173.788
RightUpLeg  -17.4922 -32.3182 3.70545
RightLeg  64.0433 -6.85537 -15.5566
RightFoot  -3.61431 -0.635445 9.02563
RightToes  7.56698e-010 0 -3.6325e-017
Spine  19.3495 1.44676 -4.36879
Spine1  -3.75813 2.13196 -7.64729
HEad  -3.71555 -15.0679 4.99171
LeftShoulder1  1.47868 -1.39705 -23.9269
LeftArm  5.80973 -16.981 -30.2327
LeftForeArm  28.0867 -44.3573 -9.00738
LeftHand  0.203229 -3.97324 -2.25442
RightShoulder  9.27481 16.5073 40.1755
RightArm  6.66311 6.0985 13.2173
RightForeArm  19.4008 46.5442 10.4417
RightHand  0.0954395 2.65575 1.16963
LeftUpLeg  -30.4772 29.8711 -12.3753
LeftLeg  21.4799 -5.74608 -2.50053
LeftFoot  4.83899 -0.384094 2.49513
LeftToes  1.48244e-010 1.61973e-010 3.308e-011
170
root  -46.0043 37.6764 53.9767 -174.261 -17.719 173.136
RightUpLeg  -9.38984 -36.3528 2.25263
RightLeg  56.3074 -8.84434 -14.3647
RightFoot  -1.45013 -0.708209 8.05653
RightToes  7.56698e-010 0 -3.6325e-017
Spine  17.2997 1.94916 -3.33677
Spine1  -3.82021 3.094 -9.3864
HEad  -2.29023 -14.7005 4.26485
LeftShoulder1  1.52233 -1.14862 -26.5833
LeftArm  7.15346 -12.0064 -31.6575
LeftForeArm  30.1145 -46.624 -9.6872
LeftHand  0.271645 -4.0479 -3.07321
RightShoulder  9.92033 17.0507 41.9722
RightArm  10.4862 5.37186 15.2337
RightForeArm  25.8353 55.4303 14.1789
RightHand  0.121812 2.27079 1.66101
LeftUpLeg  -26.857 24.9895 -9.99844
LeftLeg  16.6912 3.12569 -2.35055
LeftFoot  6.40109 -0.436743 2.54836
LeftToes  1.48244e-010 1.61973e-010 3.308e-011
171
root  -46.408 37.8811 54.5236 -174.556 -12.6839 172.884
RightUpLeg  -0.983857 -38.3125 -0.495898
RightLeg  46.8516 -11.6148 -13.26
RightFoot  1.6672 -0.870065 7.7199
RightToes  7.56698e-010 0 -3.6325e-017
Spine  15.6115 2.39762 -1.71539
Spine1  -3.9134 4.13339 -11.6448
HEad  -2.30484 -12.9755 3.64994
LeftShoulder1  1.48149 -0.755946 -28.6958
LeftArm  6.35703 -6.89931 -31.7314
LeftForeArm  30.3364 -47.0087 -9.81756
LeftHand  0.293806 -3.88974 -3.4141
RightShoulder  10.8212 17.9486 43.9805
RightArm  14.934 4.57021 17.4416
RightForeArm  31.2072 62.6395 18.9766
RightHand  0.223544 2.24419 3.21756
LeftUpLeg  -24.1755 20.7578 -7.42454
LeftLeg  13.0613 12.7528 -2.84084
LeftFoot  7.57864 -0.518129 2.83191
LeftToes  1.48244e-010 1.61973e-010 3.308e-011
172
root  -46.7345 38.0027 55.1618 -174.829 -7.16066 172.556
RightUpLeg  7.30378 -38.8221 -4.1976
RightLeg  35.5731 -11.3152 -8.82062
RightFoot  -0.861172 -1.36103 14.7011
RightToes  7.56698e-010 0 -3.6325e-017
Spine  14.0356 2.78854 -0.873396
Spine1  -3.87731 4.83911 -12.819
HEad  -2.93537 -10.3294 3.15907
LeftShoulder1  1.38065 -0.361321 -29.6509
LeftArm  4.3869 -2.36468 -32.1801
LeftForeArm  28.1122 -43.9738 -8.87282
LeftHand  0.265957 -3.58392 -3.19262
RightShoulder  11.8273 19.0605 45.7644
RightArm  19.6914 3.60761 19.6752
RightForeArm  35.4624 67.5911 24.2155
RightHand  0.320862 2.29373 4.6629
LeftUpLeg  -22.2556 16.6928 -5.21737
LeftLeg  9.62969 22.566 -3.82084
LeftFoot  8.83713 -0.647657 3.3358
LeftToes  1.48244e-010 1.61973e-010 3.308e-011
173
root  -47.0299 37.9114 56.0302 -175.215 -1.12606 171.886
RightUpLeg  14.4131 -37.9434 -7.78412
RightLeg  23.5145 -7.02539 -3.55354
RightFoot  -8.54605 -0.613153 22.4546
RightToes  7.56698e-010 0 -3.6325e-017
Spine  13.3407 3.21446 -0.915671
Spine1  -3.9917 5.32738 -13.4799
HEad  -4.00682 -6.90667 2.28383
LeftShoulder1  1.29284 -0.0780974 -30.0256
LeftArm  2.60034 1.00584 -32.3889
LeftForeArm  24.9335 -39.0166 -7.50489
LeftHand  0.25783 -3.56678 -3.09462
RightShoulder  12.623 19.6881 47.5639
RightArm  23.1807 1.80533 21.3551
RightForeArm  40.449 70.4379 28.2687
RightHand  0.454807 2.75206 6.26905
LeftUpLeg  -22.1342 13.962 -3.99108
LeftLeg  8.54392 31.4556 -3.92687
LeftFoot  9.47905 -0.734284 3.68025
LeftToes  1.48244e-010 1.61973e-010 3.308e-011
174
root  -47.2343 37.8544 56.9873 -175.824 4.88883 172.023
RightUpLeg  17.0799 -32.2147 -7.86
RightLeg  15.9011 -5.41907 -0.264652
RightFoot  -13.1371 0.248517 21.3654
RightToes  7.56698e-010 0 -3.6325e-017
Spine  13.283 3.33101 -0.530194
Spine1  -4.10816 5.40715 -13.2135
HEad  -5.76336 -2.79791 1.04702
LeftShoulder1  1.22346 0.140277 -30.3066
LeftArm  2.9451 3.1792 -31.7486
LeftForeArm  21.7299 -33.6768 -6.23144
LeftHand  0.240129 -3.54008 -2.87558
RightShoulder  12.7116 19.0952 49.1857
RightArm  26.1949 0.340983 22.7138
RightForeArm  42.3236 70.993 29.0688
RightHand  0.583269 3.2498 7.58864
LeftUpLeg  -22.3418 14.004 -2.74345
LeftLeg  7.86457 37.3767 -3.41284
LeftFoot  10.2683 -0.781696 3.7654
LeftToes  1.48244e-010 1.61973e-010 3.308e-011
175
root  -47.3712 37.821 57.9454 -176.374 10.9269 173.32
RightUpLeg  16.0613 -20.6436 -4.12863
RightLeg  13.0488 -10.4038 1.59399
RightFoot  -15.5529 0.574637 18.3719
RightToes  7.56698e-010 0 -3.6325e-017
Spine  12.9468 3.23143 0.459237
Spine1  -3.52367 5.21733 -11.8902
HEad  -7.86747 2.1314 -0.401151
LeftShoulder1  1.09804 0.488907 -30.3483
LeftArm  6.71123 4.78274 -30.8868
LeftForeArm  15.4521 -28.2717 -5.27167
LeftHand  0.235267 -3.43925 -2.85197
RightShoulder  12.5049 18.1374 50.5399
RightArm  29.0189 -0.941235 23.3736
RightForeArm  39.444 69.2245 26.1765
RightHand  0.537702 3.02769 7.18102
LeftUpLeg  -23.6747 17.5301 -1.65005
LeftLeg  9.98539 39.1969 -0.158372
LeftFoot  10.2627 -0.525159 2.42326
LeftToes  1.48244e-010 1.61973e-010 3.308e-011
176
root  -47.4366 37.7633 58.8432 -176.613 15.7585 174.729
RightUpLeg  15.1195 -15.2085 -1.78817
RightLeg  12.0801 -11.1978 2.2752
RightFoot  -17.1669 0.648383 14.9653
RightToes  7.56698e-010 0 -3.6325e-017
Spine  12.6719 2.99026 0.865743
Spine1  -3.07379 4.64715 -9.71632
HEad  -8.84616 6.80467 -1.96074
LeftShoulder1  1.01291 0.697549 -30.0156
LeftArm  13.1132 6.75054 -30.6613
LeftForeArm  6.57303 -23.6889 -4.72644
LeftHand  0.286445 -3.41185 -3.53839
RightShoulder  11.6207 16.4142 51.0449
RightArm  31.0693 -2.54097 23.3181
RightForeArm  34.2552 65.4153 21.5195
RightHand  0.515947 3.23576 6.69979
LeftUpLeg  -26.4531 21.4928 -1.97519
LeftLeg  13.3998 33.6016 4.27132
LeftFoot  7.98044 0.312217 -2.12012
LeftToes  1.48244e-010 1.61973e-010 3.308e-011
177
root  -47.4488 37.7616 59.587 -177.099 18.9656 175.277
RightUpLeg  15.0422 -11.3515 -0.439924
RightLeg  10.5944 -12.872 2.88083
RightFoot  -18.1862 0.637537 12.684
RightToes  7.56698e-010 0 -3.6325e-017
Spine  12.77 2.66845 0.263875
Spine1  -3.23111 3.80598 -7.24809
HEad  -8.43434 10.3068 -2.42356
LeftShoulder1  0.98655 0.744763 -29.6721
LeftArm  14.93 8.89901 -30.3645
LeftForeArm  3.58993 -19.7038 -7.08934
LeftHand  0.36856 -3.23762 -4.72853
RightShoulder  10.0576 13.8808 50.6463
RightArm  32.2348 -4.0808 22.814
RightForeArm  27.8242 59.9601 17.0586
RightHand  0.524415 3.06208 6.96725
LeftUpLeg  -28.7018 20.5763 -2.74017
LeftLeg  14.6318 17.2117 3.8045
LeftFoot  3.38607 0.986305 -7.78377
LeftToes  1.48244e-010 1.61973e-010 3.308e-011
178
root  -47.423 37.6922 60.123 -178.008 21.2331 175.428
RightUpLeg  15.2525 -9.17388 0.3206
RightLeg  10.3731 -13.4563 2.72174
RightFoot  -19.1906 0.642141 11.2307
RightToes  7.56698e-010 0 -3.6325e-017
Spine  13.4454 2.58468 0.152363
Spine1  -4.0763 3.25958 -5.24632
HEad  -7.22293 12.3757 -2.35499
LeftShoulder1  0.941479 0.862484 -29.5558
LeftArm  11.4623 10.3767 -30.0094
LeftForeArm  7.90793 -15.201 -10.8518
LeftHand  0.422713 -2.97741 -5.64781
RightShoulder  8.17035 10.9514 49.5088
RightArm  32.1475 -5.6752 21.8944
RightForeArm  21.4454 53.7755 13.6317
RightHand  0.493175 2.80218 6.76867
LeftUpLeg  -29.8097 14.0414 -1.92024
LeftLeg  17.7619 4.6402 1.98596
LeftFoot  -1.01132 0.735332 -8.06005
LeftToes  1.48244e-010 1.61973e-010 3.308e-011
179
root  -47.3565 37.6296 60.4563 -178.801 23.7761 175.731
RightUpLeg  15.797 -8.05238 0.769245
RightLeg  10.1435 -12.5369 2.47278
RightFoot  -19.6992 0.600825 10.0332
RightToes  7.56698e-010 0 -3.6325e-017
Spine  13.6158 2.81411 1.63839
Spine1  -4.26512 3.54159 -4.88585
HEad  -6.32505 13.5383 -2.1403
LeftShoulder1  0.884759 1.01482 -29.4545
LeftArm  7.08066 11.9671 -29.907
LeftForeArm  12.2707 -11.5224 -13.1682
LeftHand  0.418408 -2.55068 -5.92536
RightShoulder  6.62756 8.50979 48.3325
RightArm  30.8551 -6.98486 19.9219
RightForeArm  16.4462 48.1279 11.312
RightHand  0.359228 2.4304 5.13864
LeftUpLeg  -31.2521 7.95504 -0.920388
LeftLeg  24.0952 1.87611 1.24688
LeftFoot  -3.25646 0.703503 -9.6627
LeftToes  1.48244e-010 1.61973e-010 3.308e-011
180
root  -47.2228 37.6232 60.6453 -179.376 27.0738 175.912
RightUpLeg  16.5153 -7.82259 0.639377
RightLeg  9.47298 -10.0628 2.2227
RightFoot  -19.6389 0.510292 8.85883
RightToes  7.56698e-010 0 -3.6325e-017
Spine  13.6173 3.16557 3.75595
Spine1  -4.39233 4.26805 -5.85447
HEad  -5.88075 14.7759 -2.02917
LeftShoulder1  0.792944 1.25758 -29.2007
LeftArm  4.27693 14.7155 -29.5839
LeftForeArm  12.223 -10.1056 -13.8838
LeftHand  0.436383 -2.30392 -6.4088
RightShoulder  5.69505 7.11333 46.9836
RightArm  29.2928 -8.26129 17.7253
RightForeArm  11.6962 43.9982 10.0254
RightHand  0.252699 2.268 3.64762
LeftUpLeg  -32.701 6.29062 -2.06191
LeftLeg  30.9417 2.17829 1.7516
LeftFoot  -5.6923 0.485989 -9.14623
LeftToes  1.48244e-010 1.61973e-010 3.308e-011
